<svg width="14" height="14" viewBox="0 0 14 14" fill="none" xmlns="http://www.w3.org/2000/svg">
<path d="M1.62455 6.87813C1.64018 6.19531 1.7808 5.53281 2.04486 4.90938C2.31518 4.26875 2.70268 3.69531 3.19643 3.2C3.69018 2.70469 4.26518 2.31719 4.9058 2.04688C5.5683 1.76719 6.27143 1.625 6.99799 1.625C7.72455 1.625 8.42768 1.76719 9.08861 2.04688C9.7274 2.31663 10.3075 2.70831 10.7964 3.2C10.9511 3.35469 11.0964 3.51875 11.2308 3.69063L10.2902 4.425C10.2716 4.4394 10.2574 4.45875 10.2493 4.48085C10.2412 4.50294 10.2395 4.52687 10.2444 4.54988C10.2493 4.5729 10.2606 4.59406 10.277 4.61094C10.2934 4.62783 10.3142 4.63974 10.3371 4.64531L13.0824 5.31719C13.1605 5.33594 13.2371 5.27656 13.2371 5.19688L13.2496 2.37031C13.2496 2.26562 13.1292 2.20625 13.048 2.27187L12.1667 2.96094C10.9652 1.42344 9.09643 0.4375 6.99643 0.4375C3.41674 0.4375 0.504238 3.30625 0.437051 6.87187C0.436634 6.88855 0.439559 6.90514 0.445654 6.92067C0.451749 6.9362 0.46089 6.95035 0.472539 6.96229C0.484188 6.97423 0.498109 6.98372 0.513482 6.9902C0.528855 6.99667 0.545369 7.00001 0.562051 7H1.49955C1.5683 7 1.62299 6.94531 1.62455 6.87813ZM13.4371 7H12.4996C12.4308 7 12.3761 7.05469 12.3746 7.12187C12.3589 7.80469 12.2183 8.46719 11.9542 9.09062C11.6839 9.73125 11.2964 10.3063 10.8027 10.8C10.3043 11.3004 9.71182 11.6972 9.05935 11.9675C8.40688 12.2379 7.70736 12.3763 7.00111 12.375C6.2951 12.3763 5.59582 12.2378 4.94361 11.9675C4.2914 11.6972 3.69918 11.3004 3.20111 10.8C3.04643 10.6453 2.90111 10.4812 2.76674 10.3094L3.70736 9.575C3.72597 9.5606 3.74014 9.54124 3.74824 9.51915C3.75634 9.49706 3.75804 9.47313 3.75314 9.45012C3.74825 9.4271 3.73695 9.40594 3.72056 9.38906C3.70417 9.37217 3.68335 9.36026 3.66049 9.35469L0.915176 8.68281C0.837051 8.66406 0.760488 8.72344 0.760488 8.80313L0.749551 11.6313C0.749551 11.7359 0.869863 11.7953 0.951113 11.7297L1.83236 11.0406C3.03393 12.5766 4.90268 13.5625 7.00268 13.5625C10.5839 13.5625 13.4949 10.6922 13.5621 7.12813C13.5625 7.11145 13.5595 7.09486 13.5534 7.07933C13.5474 7.0638 13.5382 7.04965 13.5266 7.03771C13.5149 7.02577 13.501 7.01628 13.4856 7.0098C13.4702 7.00333 13.4537 6.99999 13.4371 7V7Z" fill="#00FFFF"/>
</svg>
