<svg width="16" height="16" viewBox="0 0 16 16" fill="none" xmlns="http://www.w3.org/2000/svg">
<g clip-path="url(#clip0_1750_9037)">
<circle cx="8" cy="8" r="12" fill="#23353B"/>
<path d="M2 18.3923C0.359985 17.4454 -1.03265 16.1239 -2.06405 14.5357C-3.09544 12.9475 -3.73632 11.1377 -3.93426 9.25434C-4.13221 7.37099 -3.88161 5.46753 -3.20296 3.69958C-2.52431 1.93164 -1.43688 0.349408 -0.0295641 -0.917741C1.37775 -2.18489 3.06498 -3.10098 4.89418 -3.59111C6.72337 -4.08124 8.6426 -4.1315 10.4949 -3.73777C12.3473 -3.34404 14.0802 -2.51751 15.5518 -1.32575C17.0236 -0.133987 18.1923 1.38916 18.9625 3.11917L8 8L2 18.3923Z" fill="#395660"/>
</g>
<defs>
<clipPath id="clip0_1750_9037">
<rect width="16" height="16" rx="8" fill="white"/>
</clipPath>
</defs>
</svg>
