<svg width="16" height="16" viewBox="0 0 16 16" fill="none" xmlns="http://www.w3.org/2000/svg">
<g clip-path="url(#clip0_1750_9020)">
<path d="M8 16C3.6 16 0 12.4 0 8C0 3.6 3.6 0 8 0C12.4 0 16 3.6 16 8C16 12.4 12.4 16 8 16ZM8 0.25C3.725 0.25 0.25 3.725 0.25 8C0.25 12.275 3.725 15.75 8 15.75C12.275 15.75 15.75 12.275 15.75 8C15.75 3.725 12.275 0.25 8 0.25Z" fill="#E5ECEF"/>
<path d="M8 0.25C3.725 0.25 0.25 3.725 0.25 8C0.25 12.275 3.725 15.75 8 15.75C12.275 15.75 15.75 12.275 15.75 8C15.75 3.725 12.275 0.25 8 0.25Z" fill="white"/>
<path d="M7.9998 3.2002L7.9248 3.4252V9.7752L7.9998 9.8252L10.9498 8.1002L7.9998 3.2002Z" fill="#343434"/>
<path d="M7.9998 3.2002L5.0498 8.1002L7.9998 9.8252V6.7502V3.2002Z" fill="#8C8C8C"/>
<path d="M8.0001 10.4004L7.9751 10.4254V12.7004L8.0001 12.8004L10.9501 8.65039L8.0001 10.4004Z" fill="#3C3C3B"/>
<path d="M7.9998 12.8004V10.4004L5.0498 8.65039L7.9998 12.8004Z" fill="#8C8C8C"/>
<path d="M8 9.825L10.95 8.1L8 6.75V9.825Z" fill="#141414"/>
<path d="M5.0498 8.1L7.9998 9.825V6.75L5.0498 8.1Z" fill="#393939"/>
</g>
<defs>
<clipPath id="clip0_1750_9020">
<rect width="16" height="16" fill="white"/>
</clipPath>
</defs>
</svg>
