<svg width="96" height="96" viewBox="0 0 96 96" fill="none" xmlns="http://www.w3.org/2000/svg">
<path d="M82.9897 41.8437L82.971 41.7687L72.4522 15.0405C71.9835 13.5312 70.5866 12.4905 69.0022 12.4905H26.3647C24.771 12.4905 23.3553 13.5499 22.9053 15.078L13.071 41.5343L13.0428 41.5999L13.0241 41.6749C12.9022 42.1343 12.8647 42.603 12.9303 43.0624C12.921 43.2124 12.9116 43.3624 12.9116 43.5124V77.8155C12.9141 79.3265 13.5154 80.7749 14.5838 81.8433C15.6522 82.9117 17.1006 83.5131 18.6116 83.5155H77.4116C80.5522 83.5155 83.1116 80.9562 83.121 77.8155V43.5124C83.121 43.3905 83.121 43.2687 83.1116 43.1655C83.1491 42.7062 83.1116 42.2655 82.9897 41.8437ZM55.2585 37.8124L55.2303 39.2843C55.1553 43.4937 52.2491 46.3249 48.0022 46.3249C45.9303 46.3249 44.1491 45.6593 42.8647 44.3937C41.5803 43.128 40.8772 41.3655 40.8397 39.2843L40.8116 37.8124H21.5178L28.971 19.6905H66.396L74.0553 37.8124H55.2585V37.8124ZM20.1022 45.0124H34.8491C37.1272 50.3655 41.9741 53.5249 48.0116 53.5249C51.171 53.5249 54.1053 52.6437 56.4772 50.9749C58.5585 49.5124 60.1803 47.4687 61.2303 45.0124H75.9022V76.3155H20.1022V45.0124V45.0124Z" fill="#23353B"/>
</svg>
