<svg width="24" height="25" viewBox="0 0 24 25" fill="none" xmlns="http://www.w3.org/2000/svg">
<path d="M20.0357 18.6894V6.31037C20.5982 6.11149 21 5.5751 21 4.94631C21 4.14675 20.3531 3.49988 19.5536 3.49988C18.9248 3.49988 18.3884 3.90166 18.1895 4.46416H5.81049C5.61161 3.90166 5.07522 3.49988 4.44643 3.49988C3.64688 3.49988 3 4.14675 3 4.94631C3 5.5751 3.40179 6.11149 3.96429 6.31037V18.6894C3.40179 18.8883 3 19.4247 3 20.0534C3 20.853 3.64688 21.4999 4.44643 21.4999C5.07522 21.4999 5.61161 21.0981 5.81049 20.5356H18.1895C18.3884 21.0981 18.9248 21.4999 19.5536 21.4999C20.3531 21.4999 21 20.853 21 20.0534C21 19.4247 20.5982 18.8883 20.0357 18.6894ZM19.5536 4.46416C19.8208 4.46416 20.0357 4.67912 20.0357 4.94631C20.0357 5.21349 19.8208 5.42845 19.5536 5.42845C19.2864 5.42845 19.0714 5.21349 19.0714 4.94631C19.0714 4.67912 19.2864 4.46416 19.5536 4.46416ZM4.44643 20.5356C4.17924 20.5356 3.96429 20.3206 3.96429 20.0534C3.96429 19.7863 4.17924 19.5713 4.44643 19.5713C4.71362 19.5713 4.92857 19.7863 4.92857 20.0534C4.92857 20.3206 4.71362 20.5356 4.44643 20.5356ZM4.44643 5.42845C4.17924 5.42845 3.96429 5.21349 3.96429 4.94631C3.96429 4.67912 4.17924 4.46416 4.44643 4.46416C4.71362 4.46416 4.92857 4.67912 4.92857 4.94631C4.92857 5.21349 4.71362 5.42845 4.44643 5.42845ZM18.5893 19.0892H5.41071V5.91059H18.5893V19.0892ZM19.5536 20.5356C19.2864 20.5356 19.0714 20.3206 19.0714 20.0534C19.0714 19.7863 19.2864 19.5713 19.5536 19.5713C19.8208 19.5713 20.0357 19.7863 20.0357 20.0534C20.0357 20.3206 19.8208 20.5356 19.5536 20.5356Z" fill="#F100F5"/>
<path d="M7.33333 11.7275H16.6667C16.85 11.7275 17 11.5812 17 11.4023V7.82508C17 7.64622 16.85 7.49988 16.6667 7.49988H7.33333C7.15 7.49988 7 7.64622 7 7.82508V11.4023C7 11.5812 7.15 11.7275 7.33333 11.7275ZM8.5 8.96329H15.5V10.2641H8.5V8.96329ZM7.33333 17.4999H16.6667C16.85 17.4999 17 17.3535 17 17.1747V13.5974C17 13.4186 16.85 13.2722 16.6667 13.2722H7.33333C7.15 13.2722 7 13.4186 7 13.5974V17.1747C7 17.3535 7.15 17.4999 7.33333 17.4999ZM8.5 14.7357H15.5V16.0365H8.5V14.7357Z" fill="#F100F5"/>
</svg>
