<svg width="100" height="100" viewBox="0 0 100 100" fill="none" xmlns="http://www.w3.org/2000/svg">
<path d="M85.0035 86.1587C84.2803 86.1587 83.7122 85.5817 83.7122 84.8474C83.7122 84.113 84.2803 83.5361 85.0035 83.5361C87.2762 83.5361 89.0841 81.7002 89.0841 79.3924V19.2658C89.0841 16.9579 87.2762 15.1221 85.0035 15.1221H14.9966C12.7239 15.1221 10.916 16.9579 10.916 19.2658V79.3924C10.916 81.7002 12.7239 83.5361 14.9966 83.5361H59.5903C60.3134 83.5361 60.8816 84.113 60.8816 84.8474C60.8816 85.5817 60.3134 86.1587 59.5903 86.1587H14.9966C11.3292 86.1587 8.33337 83.1164 8.33337 79.3924V19.2658C8.33337 15.5417 11.3292 12.4995 14.9966 12.4995H85.0035C88.6708 12.4995 91.6667 15.5417 91.6667 19.2658V79.3924C91.6667 83.1164 88.6708 86.1587 85.0035 86.1587Z" fill="#23353B" stroke="#23353B" stroke-width="0.7"/>
<path d="M90.3754 34.2606H9.6247C8.90156 34.2606 8.33337 33.6311 8.33337 32.9493C8.33337 32.2674 8.90156 31.638 9.6247 31.638H90.3754C91.0985 31.638 91.6667 32.2149 91.6667 32.9493C91.6667 33.6836 91.0985 34.2606 90.3754 34.2606Z" fill="#23353B" stroke="#23353B" stroke-width="0.7"/>
<path d="M80.0619 24.8487C79.907 24.8487 79.752 24.8487 79.5971 24.7438C79.4421 24.6913 79.2871 24.5864 79.1838 24.4815C78.9256 24.2192 78.8223 23.9045 78.8223 23.5374C78.8223 23.38 78.8739 23.2226 78.9256 23.0653C78.9772 22.9079 79.0805 22.7506 79.1838 22.6457C79.2871 22.5408 79.4421 22.4359 79.5971 22.3834C80.0619 22.1736 80.6301 22.331 80.9917 22.6457C81.095 22.7506 81.1983 22.9079 81.25 23.0653C81.3016 23.2226 81.3533 23.38 81.3533 23.5374C81.3533 23.9045 81.25 24.2192 80.9917 24.4815C80.94 24.5339 80.8884 24.5864 80.7851 24.6389C80.6818 24.6913 80.6301 24.7438 80.5785 24.7438C80.4752 24.7438 80.4235 24.7962 80.3202 24.7962C80.2685 24.8487 80.1652 24.8487 80.0619 24.8487Z" fill="#23353B" stroke="#23353B" stroke-width="0.7"/>
<path d="M71.0916 24.8487C70.9367 24.8487 70.7817 24.8487 70.6267 24.7438C70.4201 24.6913 70.3168 24.5864 70.1619 24.4815C69.9036 24.2192 69.8003 23.9045 69.8003 23.5374C69.8003 23.38 69.8519 23.2226 69.9036 23.0653C69.9553 22.9079 70.0586 22.7506 70.1619 22.6457C70.3168 22.5408 70.4201 22.4359 70.5751 22.3834C71.04 22.1736 71.6081 22.331 71.9697 22.6457C72.073 22.7506 72.1763 22.9079 72.228 23.0653C72.2796 23.2226 72.3313 23.38 72.3313 23.5374C72.3313 23.9045 72.228 24.2192 71.9697 24.4815C71.9181 24.5339 71.8664 24.5864 71.7631 24.6389C71.7115 24.6913 71.6081 24.7438 71.5565 24.7438C71.4532 24.7438 71.4015 24.7962 71.2982 24.7962C71.2466 24.8487 71.1949 24.8487 71.0916 24.8487Z" fill="#23353B" stroke="#23353B" stroke-width="0.7"/>
<path d="M62.0696 24.8487C62.018 24.8487 61.9147 24.8487 61.8114 24.8487C61.7081 24.8487 61.6564 24.7962 61.5531 24.7962C61.4498 24.7438 61.3982 24.7438 61.3465 24.6913C61.2432 24.6389 61.1915 24.5864 61.1399 24.534C60.8816 24.2717 60.7783 23.957 60.7783 23.5898C60.7783 23.4325 60.83 23.2751 60.8816 23.1178C60.9333 22.9604 61.0366 22.803 61.1399 22.6981C61.5015 22.331 62.0696 22.2261 62.5345 22.4359C62.6895 22.4883 62.8444 22.5932 62.9477 22.6981C63.051 22.803 63.1544 22.9604 63.206 23.1178C63.2577 23.2751 63.3093 23.4325 63.3093 23.5898C63.3093 23.957 63.206 24.2717 62.9477 24.534C62.8444 24.6389 62.6895 24.7438 62.5345 24.7962C62.4312 24.8487 62.2763 24.8487 62.0696 24.8487Z" fill="#23353B" stroke="#23353B" stroke-width="0.7"/>
<path d="M52.4277 78.2908C48.2438 78.2908 44.0599 76.6648 40.8574 73.4128C34.4525 66.9612 34.4525 56.3658 40.8574 49.9142C47.2624 43.4102 57.6446 43.4102 64.0496 49.9142C67.1488 53.0614 68.8533 57.2575 68.8533 61.6635C68.8533 66.0695 67.1488 70.2657 64.0496 73.4128C60.8471 76.6648 56.6116 78.2908 52.4277 78.2908ZM52.4277 47.6588C48.9153 47.6588 45.3512 49.0225 42.6653 51.7501C37.2934 57.2051 37.2934 66.1219 42.6653 71.577C48.0372 77.032 56.8182 77.032 62.1901 71.577C67.562 66.1219 67.562 57.2051 62.1901 51.7501C59.5041 49.0225 55.9917 47.6588 52.4277 47.6588Z" fill="#23353B" stroke="#23353B" stroke-width="0.7"/>
<path d="M80.6819 91.6661C80.372 91.6661 80.0104 91.5612 79.7521 91.299L62.1901 73.4653C61.6736 72.9407 61.6736 72.1015 62.1901 71.6294C62.7067 71.1049 63.5331 71.1049 63.998 71.6294L81.56 89.4632C82.0765 89.9877 82.0765 90.8269 81.56 91.299C81.3017 91.5088 80.9918 91.6661 80.6819 91.6661Z" fill="#23353B" stroke="#23353B" stroke-width="0.7"/>
</svg>
