<svg width="16" height="16" viewBox="0 0 16 16" fill="none" xmlns="http://www.w3.org/2000/svg">
<path d="M10.3633 5.63661C9.76369 5.03696 8.91713 4.64896 8.00002 4.64896C7.08291 4.64896 6.23635 5.01933 5.6367 5.63661C5.03705 6.23626 4.64905 7.08282 4.64905 7.99993C4.64905 8.91703 5.03705 9.7636 5.6367 10.3632C6.23635 10.9629 7.08291 11.3509 8.00002 11.3509C8.91713 11.3509 9.76369 10.9805 10.3633 10.3632C10.963 9.7636 11.351 8.91703 11.351 7.99993C11.351 7.08282 10.9806 6.23626 10.3633 5.63661ZM9.72841 9.72832C9.2875 10.1692 8.67021 10.4338 8.00002 10.4338C7.32982 10.4338 6.71254 10.1692 6.27162 9.72832C5.83071 9.2874 5.56616 8.67012 5.56616 7.99993C5.56616 7.32973 5.83071 6.71245 6.27162 6.27153C6.71254 5.83061 7.32982 5.56606 8.00002 5.56606C8.67021 5.56606 9.2875 5.83061 9.72841 6.27153C10.1693 6.71245 10.4339 7.32973 10.4339 7.99993C10.4339 8.67012 10.1693 9.2874 9.72841 9.72832Z" fill="#00FFFF"/>
<path d="M14.2082 7.54135H12.8502C12.6032 7.54135 12.3916 7.75299 12.3916 7.99991C12.3916 8.24682 12.6032 8.45846 12.8502 8.45846H14.2082C14.4551 8.45846 14.6667 8.24682 14.6667 7.99991C14.6667 7.75299 14.4551 7.54135 14.2082 7.54135Z" fill="#00FFFF"/>
<path d="M8.00006 12.3914C7.75314 12.3914 7.5415 12.6031 7.5415 12.85V14.208C7.5415 14.4549 7.75314 14.6666 8.00006 14.6666C8.24697 14.6666 8.45861 14.4549 8.45861 14.208V12.85C8.45861 12.6031 8.24697 12.3914 8.00006 12.3914Z" fill="#00FFFF"/>
<path d="M12.709 12.074L11.739 11.104C11.5803 10.9276 11.2804 10.9276 11.1041 11.104C10.9277 11.2804 10.9277 11.5625 11.1041 11.7389L12.0741 12.7089C12.2505 12.8853 12.5326 12.8853 12.709 12.7089C12.8854 12.5326 12.8854 12.2504 12.709 12.074Z" fill="#00FFFF"/>
<path d="M8.00006 1.33325C7.75314 1.33325 7.5415 1.54489 7.5415 1.79181V3.14983C7.5415 3.39674 7.75314 3.60838 8.00006 3.60838C8.24697 3.60838 8.45861 3.39674 8.45861 3.14983V1.79181C8.45861 1.54489 8.24697 1.33325 8.00006 1.33325Z" fill="#00FFFF"/>
<path d="M12.7267 3.29094C12.5503 3.11457 12.2682 3.11457 12.0918 3.29094L11.1218 4.26095C10.9454 4.43732 10.9454 4.71951 11.1218 4.89587C11.2805 5.07224 11.5803 5.07224 11.7567 4.89587L12.7267 3.92586C12.9031 3.74949 12.9031 3.4673 12.7267 3.29094Z" fill="#00FFFF"/>
<path d="M3.14995 7.54135H1.79193C1.54501 7.54135 1.33337 7.75299 1.33337 7.99991C1.33337 8.24682 1.52738 8.45846 1.79193 8.45846H3.14995C3.39687 8.45846 3.60851 8.24682 3.60851 7.99991C3.60851 7.75299 3.39687 7.54135 3.14995 7.54135Z" fill="#00FFFF"/>
<path d="M4.87833 11.104C4.7196 10.9276 4.41977 10.9276 4.24341 11.104L3.27339 12.074C3.09702 12.2504 3.09702 12.5326 3.27339 12.7089C3.44976 12.8853 3.73194 12.8853 3.90831 12.7089L4.87833 11.7389C5.05469 11.5625 5.05469 11.2804 4.87833 11.104Z" fill="#00FFFF"/>
<path d="M4.87833 4.26095L3.90831 3.29094C3.73194 3.11457 3.44976 3.11457 3.27339 3.29094C3.09702 3.4673 3.09702 3.74949 3.27339 3.92586L4.24341 4.89587C4.41977 5.07224 4.70196 5.07224 4.87833 4.89587C5.05469 4.71951 5.05469 4.43732 4.87833 4.26095Z" fill="#00FFFF"/>
</svg>
